<?xml version="1.0" encoding="UTF-8"?>
<svg xmlns="http://www.w3.org/2000/svg" xmlns:xlink="http://www.w3.org/1999/xlink" width="168px" height="168px" viewBox="0 0 168 168" version="1.1">
<defs>
<filter id="alpha" filterUnits="objectBoundingBox" x="0%" y="0%" width="100%" height="100%">
  <feColorMatrix type="matrix" in="SourceGraphic" values="0 0 0 0 1 0 0 0 0 1 0 0 0 0 1 0 0 0 1 0"/>
</filter>
<mask id="mask0">
  <g filter="url(#alpha)">
<rect x="0" y="0" width="168" height="168" style="fill:rgb(0%,0%,0%);fill-opacity:0.996078;stroke:none;"/>
  </g>
</mask>
<clipPath id="clip1">
  <rect x="0" y="0" width="168" height="168"/>
</clipPath>
<g id="surface5" clip-path="url(#clip1)">
<path style=" stroke:none;fill-rule:evenodd;fill:rgb(70.588235%,70.588235%,70.588235%);fill-opacity:1;" d="M 33.433594 123.480469 C 33.574219 123.238281 33.796875 123.070312 34.105469 122.976562 C 33.492188 122.675781 33.042969 122.226562 32.761719 121.632812 C 32.816406 121.464844 32.871094 121.296875 32.929688 121.128906 C 33.265625 121.574219 33.601562 121.574219 33.9375 121.128906 C 34.492188 120.488281 34.601562 119.816406 34.273438 119.113281 C 34.402344 119.296875 34.570312 119.410156 34.777344 119.449219 C 35.339844 119.730469 35.730469 120.179688 35.953125 120.792969 C 41.1875 104.070312 46.230469 87.269531 51.070312 70.390625 C 51.933594 68.523438 53.332031 67.234375 55.273438 66.527344 C 73.847656 65.972656 92.441406 65.863281 111.046875 66.191406 C 114.066406 66.746094 116.023438 68.480469 116.929688 71.398438 C 121.644531 87.917969 126.515625 104.382812 131.542969 120.792969 C 143.484375 104.824219 147.011719 87.125 142.128906 67.703125 C 135.015625 45.023438 119.953125 30.746094 96.9375 24.863281 C 76.167969 20.898438 57.910156 25.882812 42.167969 39.816406 C 41.71875 38.25 41.71875 36.679688 42.167969 35.113281 C 53.976562 24.601562 67.863281 19.449219 83.832031 19.65625 C 104.316406 19.851562 121.058594 27.804688 134.0625 43.511719 C 149 63.644531 152.023438 85.484375 143.136719 109.03125 C 140.574219 114.945312 137.214844 120.320312 133.054688 125.160156 C 133.285156 127.199219 133.734375 129.214844 134.398438 131.207031 C 135.332031 135.898438 133.597656 139.089844 129.191406 140.785156 C 114.078125 141.164062 98.957031 141.332031 83.832031 141.289062 C 68.59375 141.328125 53.363281 141.160156 38.136719 140.785156 C 33.9375 139.277344 32.203125 136.308594 32.929688 131.878906 C 33.542969 129.808594 34.160156 127.734375 34.777344 125.664062 C 34.257812 124.976562 33.808594 124.25 33.433594 123.480469 Z M 33.433594 123.480469 "/>
</g>
<mask id="mask1">
  <g filter="url(#alpha)">
<rect x="0" y="0" width="168" height="168" style="fill:rgb(0%,0%,0%);fill-opacity:0.988235;stroke:none;"/>
  </g>
</mask>
<clipPath id="clip2">
  <rect x="0" y="0" width="168" height="168"/>
</clipPath>
<g id="surface8" clip-path="url(#clip2)">
<path style=" stroke:none;fill-rule:evenodd;fill:rgb(71.764706%,71.764706%,71.764706%);fill-opacity:1;" d="M 42.167969 35.113281 C 41.71875 36.679688 41.71875 38.25 42.167969 39.816406 C 23.441406 59.476562 18.792969 82.097656 28.222656 107.6875 C 30.089844 111.832031 32.273438 115.753906 34.777344 119.449219 C 34.570312 119.410156 34.402344 119.296875 34.273438 119.113281 C 34.601562 119.816406 34.492188 120.488281 33.9375 121.128906 C 33.601562 121.574219 33.265625 121.574219 32.929688 121.128906 C 32.871094 121.296875 32.816406 121.464844 32.761719 121.632812 C 33.042969 122.226562 33.492188 122.675781 34.105469 122.976562 C 33.796875 123.070312 33.574219 123.238281 33.433594 123.480469 C 25.585938 113.820312 21.046875 102.734375 19.824219 90.214844 C 18.222656 68.347656 25.449219 50.035156 41.496094 35.28125 C 41.695312 35.125 41.917969 35.066406 42.167969 35.113281 Z M 42.167969 35.113281 "/>
</g>
</defs>
<g id="surface1">
<use xlink:href="#surface5" mask="url(#mask0)"/>
<use xlink:href="#surface8" mask="url(#mask1)"/>
</g>
</svg>
