<svg xmlns="http://www.w3.org/2000/svg" xmlns:xlink="http://www.w3.org/1999/xlink" width="20px" height="20px" viewBox="0 0 20 20" version="1.1">
<g id="surface1">
<path style=" stroke:none;fill-rule:nonzero;fill:#9a9a9a;fill-opacity:1;" d="M 16.214844 6.667969 L 16.875 5.207031 L 18.332031 4.550781 C 18.660156 4.398438 18.660156 3.941406 18.332031 3.792969 L 16.875 3.132812 L 16.214844 1.667969 C 16.066406 1.339844 15.609375 1.339844 15.457031 1.667969 L 14.800781 3.125 L 13.332031 3.785156 C 13.007812 3.933594 13.007812 4.390625 13.332031 4.542969 L 14.792969 5.199219 L 15.449219 6.667969 C 15.601562 6.992188 16.066406 6.992188 16.214844 6.667969 Z M 9.582031 7.917969 L 8.257812 5 C 7.964844 4.351562 7.035156 4.351562 6.742188 5 L 5.417969 7.917969 L 2.5 9.242188 C 1.851562 9.542969 1.851562 10.464844 2.5 10.757812 L 5.417969 12.082031 L 6.742188 15 C 7.042969 15.648438 7.964844 15.648438 8.257812 15 L 9.582031 12.082031 L 12.5 10.757812 C 13.148438 10.457031 13.148438 9.535156 12.5 9.242188 Z M 15.449219 13.332031 L 14.792969 14.792969 L 13.332031 15.449219 C 13.007812 15.601562 13.007812 16.058594 13.332031 16.207031 L 14.792969 16.867188 L 15.449219 18.332031 C 15.601562 18.660156 16.058594 18.660156 16.207031 18.332031 L 16.867188 16.875 L 18.332031 16.214844 C 18.660156 16.066406 18.660156 15.609375 18.332031 15.457031 L 16.875 14.800781 L 16.214844 13.332031 C 16.066406 13.007812 15.601562 13.007812 15.449219 13.332031 Z M 15.449219 13.332031 "/>
</g>
</svg>